<svg width="21" height="20" viewBox="0 0 21 20" fill="none" xmlns="http://www.w3.org/2000/svg">
<path d="M19.2955 1.8H15.0955V0.2C15.0955 0.09 15.0055 0 14.8955 0H13.4955C13.3855 0 13.2955 0.09 13.2955 0.2V1.8H6.89546V0.2C6.89546 0.09 6.80546 0 6.69546 0H5.29546C5.18546 0 5.09546 0.09 5.09546 0.2V1.8H0.895459C0.452959 1.8 0.095459 2.1575 0.095459 2.6V19.2C0.095459 19.6425 0.452959 20 0.895459 20H19.2955C19.738 20 20.0955 19.6425 20.0955 19.2V2.6C20.0955 2.1575 19.738 1.8 19.2955 1.8ZM18.2955 18.2H1.89546V8.7H18.2955V18.2ZM1.89546 7V3.6H5.09546V4.8C5.09546 4.91 5.18546 5 5.29546 5H6.69546C6.80546 5 6.89546 4.91 6.89546 4.8V3.6H13.2955V4.8C13.2955 4.91 13.3855 5 13.4955 5H14.8955C15.0055 5 15.0955 4.91 15.0955 4.8V3.6H18.2955V7H1.89546Z" fill="#B5B8BB"/>
</svg>
