<svg width="60" height="60" viewBox="0 0 60 60" fill="none" xmlns="http://www.w3.org/2000/svg">
<path fill-rule="evenodd" clip-rule="evenodd" d="M32.6838 3.65862C31.5783 1.44712 28.4224 1.44712 27.317 3.65863L2.32303 53.659C1.32594 55.6537 2.77643 58.0004 5.00645 58.0004H54.9943C57.2243 58.0004 58.6748 55.6537 57.6777 53.659L32.6838 3.65862ZM25.528 2.76438C27.3705 -0.921458 32.6303 -0.921464 34.4727 2.76438L59.4667 52.7647C61.1285 56.0892 58.711 60.0004 54.9943 60.0004H5.00645C1.28976 60.0004 -1.12774 56.0892 0.534087 52.7647L25.528 2.76438ZM28.9513 21.232C28.9513 20.6527 29.4209 20.1832 30.0002 20.1832C30.5794 20.1832 31.049 20.6527 31.049 21.232V40.1165C31.049 40.6957 30.5794 41.1653 30.0002 41.1653C29.4209 41.1653 28.9513 40.6957 28.9513 40.1165V21.232ZM30 45.362C29.4209 45.362 28.9513 45.8316 28.9513 46.4108C28.9513 46.9899 29.4209 47.4595 30 47.4595C30.5792 47.4595 31.0488 46.9899 31.0488 46.4108C31.0488 45.8316 30.5792 45.362 30 45.362Z" fill="#FEDA00"/>
</svg>
