<svg width="30" height="30" viewBox="0 0 30 30" fill="none" xmlns="http://www.w3.org/2000/svg">
<path d="M18.7363 13.0995C18.7363 12.824 18.8281 12.5486 18.8281 12.1814C18.8281 11.8141 18.8281 11.5387 18.7363 11.2632L20.6644 9.70239C20.848 9.51876 20.848 9.33513 20.7562 9.15151L18.9199 5.93803C18.8281 5.84622 18.6445 5.75441 18.369 5.84622L16.0737 6.76435C15.6146 6.3971 15.0637 6.12166 14.5129 5.84622L14.1456 3.45907C14.2374 3.18363 13.962 3 13.7784 3H10.1058C9.92216 3 9.64675 3.18363 9.64675 3.36725L9.2795 5.84622C8.72862 6.02985 8.26955 6.3971 7.71867 6.76435L5.51514 5.84622C5.2397 5.75441 5.05607 5.84622 4.87241 6.02985L3.03614 9.24332C2.94433 9.33513 3.03614 9.61057 3.21977 9.7942L5.14785 11.2632C5.14785 11.5387 5.05604 11.8141 5.05604 12.1814C5.05604 12.5486 5.05604 12.824 5.14785 13.0995L3.21977 14.6603C3.03614 14.844 3.03614 15.0276 3.12795 15.2112L4.96423 18.4247C5.05604 18.5165 5.23963 18.6083 5.51511 18.5165L7.81044 17.5984C8.26951 17.9656 8.82039 18.2411 9.37127 18.5165L9.73853 20.9037C9.73853 21.0873 9.92216 21.2709 10.1976 21.2709H13.8701C14.0538 21.2709 14.3292 21.0873 14.3292 20.9037L14.6965 18.5165C15.2473 18.2411 15.7982 17.9656 16.2573 17.5984L18.5526 18.5165C18.7363 18.6083 19.0117 18.5165 19.1035 18.3329L20.9398 15.1194C21.0316 14.9358 21.0316 14.6603 20.848 14.5685L18.7363 13.0995ZM11.9421 15.3948C10.1976 15.3948 8.72862 13.9258 8.72862 12.1814C8.72862 10.4369 10.1976 8.96788 11.9421 8.96788C13.6865 8.96788 15.1556 10.4369 15.1556 12.1814C15.1556 13.9258 13.6865 15.3948 11.9421 15.3948Z" fill="#feda00"/>
</svg>
