<svg width="30" height="30" viewBox="0 0 30 30" fill="none" xmlns="http://www.w3.org/2000/svg">
<path d="M11.5 18C8.25225 18 3.91699 17.1509 3.91699 15.1846C3.91699 13.2184 6.73483 13 10 13C11.7398 12.9385 14.9755 13.0524 14 14" stroke="#feda00" stroke-width="1.5" stroke-linecap="round" stroke-linejoin="round"/>
<path fill-rule="evenodd" clip-rule="evenodd" d="M9.93784 9.90492C7.79651 9.90492 6.07959 8.188 6.07959 6.04575C6.07959 3.90442 7.79651 2.1875 9.93784 2.1875C12.0792 2.1875 13.7961 3.90442 13.7961 6.04575C13.7961 8.188 12.0792 9.90492 9.93784 9.90492Z" stroke="#feda00" stroke-width="1.5" stroke-linecap="round" stroke-linejoin="round"/>
<path fill-rule="evenodd" clip-rule="evenodd" d="M21.0307 15.059L20.6745 14.441C20.3731 13.918 19.7053 13.7375 19.1816 14.0376V14.0376C18.9323 14.1845 18.6348 14.2261 18.3548 14.1534C18.0747 14.0807 17.8351 13.8996 17.6888 13.65C17.5946 13.4914 17.544 13.3107 17.5421 13.1262V13.1262C17.5506 12.8304 17.439 12.5438 17.2328 12.3317C17.0265 12.1195 16.7432 11.9999 16.4473 12H15.7297C15.4398 12 15.1619 12.1155 14.9574 12.321C14.753 12.5264 14.6388 12.8049 14.6402 13.0948V13.0948C14.6316 13.6932 14.144 14.1739 13.5454 14.1738C13.361 14.1719 13.1803 14.1213 13.0216 14.0271V14.0271C12.4979 13.7271 11.8301 13.9075 11.5288 14.4305L11.1464 15.059C10.8454 15.5814 11.0234 16.2488 11.5445 16.5519V16.5519C11.8832 16.7475 12.0919 17.1089 12.0919 17.5C12.0919 17.8911 11.8832 18.2525 11.5445 18.4481V18.4481C11.024 18.7492 10.8459 19.4149 11.1464 19.9357V19.9357L11.5078 20.559C11.649 20.8138 11.8859 21.0018 12.1661 21.0814C12.4462 21.1611 12.7466 21.1258 13.0007 20.9833V20.9833C13.2504 20.8376 13.5481 20.7977 13.8274 20.8724C14.1068 20.9472 14.3447 21.1304 14.4883 21.3814C14.5824 21.5401 14.633 21.7208 14.6349 21.9052V21.9052C14.6349 22.5099 15.1251 23 15.7297 23H16.4473C17.0499 23 17.5392 22.5131 17.5421 21.9105V21.9105C17.5407 21.6197 17.6556 21.3404 17.8612 21.1348C18.0668 20.9292 18.3461 20.8143 18.6369 20.8157C18.8209 20.8206 19.0008 20.871 19.1607 20.9624V20.9624C19.683 21.2634 20.3504 21.0854 20.6535 20.5643V20.5643L21.0307 19.9357C21.1766 19.6851 21.2167 19.3867 21.142 19.1065C21.0673 18.8263 20.8839 18.5875 20.6326 18.4429V18.4429C20.3812 18.2982 20.1979 18.0594 20.1231 17.7792C20.0484 17.499 20.0885 17.2006 20.2345 16.95C20.3294 16.7843 20.4668 16.6468 20.6326 16.5519V16.5519C21.1505 16.2489 21.3281 15.5855 21.0307 15.0643V15.0643V15.059Z" stroke="#feda00" stroke-width="1.5" stroke-linecap="round" stroke-linejoin="round"/>
<circle cx="16.0911" cy="17.4998" r="1.50857" stroke="#feda00" stroke-width="1.5" stroke-linecap="round" stroke-linejoin="round"/>
</svg>
