<svg width="122" height="30" viewBox="0 0 122 30" fill="none" xmlns="http://www.w3.org/2000/svg">
<path d="M30 15.6156C28.7053 15.273 27.3472 15.0899 25.9476 15.0899C17.6103 15.0899 10.7671 21.2138 9.95054 29.1275C11.5297 29.6923 13.2327 30 15.0066 30C23.0878 30 29.6768 23.6145 30 15.6156Z" fill="#FEDA00"/>
<path d="M7.7684 28.1428C8.08594 28.0084 8.37229 27.8738 8.62746 27.7456C8.04813 27.6653 7.2127 27.5154 6.30072 27.2193C6.77041 27.5542 7.2609 27.8629 7.7684 28.1428Z" fill="#FEDA00"/>
<path d="M2.21995 22.8556C0.811807 20.5709 0 17.8803 0 15C0 6.71572 6.71843 0 15.0066 0C19.9039 0 24.2531 2.34481 26.9919 5.97255C24.7133 8.13886 24.5857 11.4719 24.6406 13.0017C23.5292 11.6095 21.8952 8.95185 21.503 5.02855C18.3663 7.93933 19.4115 12.179 20.0003 13.9509C18.4967 12.8751 16.2749 10.7869 14.7061 7.11678C12.4833 10.7236 14.7061 14.5836 15.7513 16.1023C14.0521 15.4695 11.2415 14.0774 8.75788 10.9134C7.64743 14.9633 10.8493 18.0639 12.2877 19.2662C10.4571 19.1397 7.38565 18.5069 4.11763 16.1656C4.24805 20.342 8.17005 22.4934 9.86927 23.2527C8.27684 23.5953 5.56735 23.8349 2.21995 22.8556Z" fill="#FEDA00"/>
<path d="M28.3424 8.11653C28.9859 9.36023 29.4613 10.7053 29.7363 12.1217C29.5605 12.6039 29.4349 13.0378 29.346 13.3813C28.8896 12.2319 28.3688 10.4338 28.3424 8.11653Z" fill="#FEDA00"/>
<path d="M50.08 20L49.52 18.24H45.36L44.8 20H42L45.808 8.8H49.072L52.88 20H50.08ZM46.128 15.84H48.752L47.44 11.728L46.128 15.84ZM60.075 8.8H62.635V20H60.715L56.395 13.92V20H53.835V8.8H55.755L60.075 14.88V8.8ZM69.0338 8.8C70.5804 8.8 71.8711 9.33867 72.9058 10.416C73.9511 11.4827 74.4738 12.8107 74.4738 14.4C74.4738 15.9893 73.9511 17.3227 72.9058 18.4C71.8711 19.4667 70.5804 20 69.0338 20H64.5538V8.8H69.0338ZM69.0338 17.536C69.9191 17.536 70.6338 17.2533 71.1778 16.688C71.7324 16.112 72.0098 15.3493 72.0098 14.4C72.0098 13.4507 71.7324 12.6933 71.1778 12.128C70.6338 11.552 69.9191 11.264 69.0338 11.264H67.1138V17.536H69.0338ZM78.4731 17.536H82.9531V20H75.9131V8.8H82.8731V11.264H78.4731V13.12H82.4731V15.552H78.4731V17.536ZM90.2855 20L88.1735 16.32H86.9575V20H84.3975V8.8H88.8775C89.9442 8.8 90.8508 9.17333 91.5975 9.92C92.3442 10.6667 92.7175 11.5733 92.7175 12.64C92.7175 13.3227 92.5255 13.9573 92.1415 14.544C91.7682 15.12 91.2722 15.568 90.6535 15.888L93.0375 20H90.2855ZM86.9575 11.2V14.08H88.8775C89.2295 14.08 89.5282 13.9413 89.7735 13.664C90.0295 13.3867 90.1575 13.0453 90.1575 12.64C90.1575 12.2347 90.0295 11.8933 89.7735 11.616C89.5282 11.3387 89.2295 11.2 88.8775 11.2H86.9575ZM98.005 20.224C96.8637 20.224 95.909 19.9787 95.141 19.488C94.3837 18.9867 93.845 18.3093 93.525 17.456L95.733 16.176C96.181 17.2107 96.965 17.728 98.085 17.728C99.0983 17.728 99.605 17.424 99.605 16.816C99.605 16.4853 99.4397 16.2293 99.109 16.048C98.789 15.856 98.181 15.6373 97.285 15.392C96.8157 15.264 96.405 15.12 96.053 14.96C95.701 14.8 95.3543 14.592 95.013 14.336C94.6823 14.0693 94.4263 13.7387 94.245 13.344C94.0743 12.9493 93.989 12.496 93.989 11.984C93.989 10.9493 94.357 10.1227 95.093 9.504C95.8397 8.88533 96.725 8.576 97.749 8.576C98.6663 8.576 99.477 8.79467 100.181 9.232C100.885 9.65867 101.44 10.2827 101.845 11.104L99.685 12.368C99.4823 11.9413 99.2317 11.6213 98.933 11.408C98.6343 11.184 98.2397 11.072 97.749 11.072C97.365 11.072 97.0663 11.1573 96.853 11.328C96.6503 11.488 96.549 11.6853 96.549 11.92C96.549 12.1973 96.677 12.4373 96.933 12.64C97.1997 12.8427 97.7437 13.0667 98.565 13.312C99.013 13.4507 99.3597 13.5627 99.605 13.648C99.8503 13.7333 100.16 13.8773 100.533 14.08C100.917 14.272 101.205 14.48 101.397 14.704C101.6 14.9173 101.776 15.2053 101.925 15.568C102.085 15.92 102.165 16.3253 102.165 16.784C102.165 17.8507 101.781 18.6933 101.013 19.312C100.245 19.92 99.2423 20.224 98.005 20.224ZM105.926 17.536H110.406V20H103.366V8.8H110.326V11.264H105.926V13.12H109.926V15.552H105.926V17.536ZM118.091 8.8H120.651V20H118.731L114.411 13.92V20H111.851V8.8H113.771L118.091 14.88V8.8Z" fill="#888D92"/>
</svg>
