<?xml version="1.0" encoding="iso-8859-1"?>
<!-- Generator: Adobe Illustrator 16.0.0, SVG Export Plug-In . SVG Version: 6.00 Build 0)  -->
<!DOCTYPE svg PUBLIC "-//W3C//DTD SVG 1.1//EN" "http://www.w3.org/Graphics/SVG/1.1/DTD/svg11.dtd">
<!-- License: CC0. Made by SVG Repo: https://www.svgrepo.com/svg/153934/reindeer-cartoon-head -->
<svg version="1.1" id="Capa_1" xmlns="http://www.w3.org/2000/svg" xmlns:xlink="http://www.w3.org/1999/xlink" x="0px" y="0px"
	 width="30px" height="30px" viewBox="0 0 546.8 546.8" style="enable-background:new 0 0 546.8 546.8;" xml:space="preserve"
	>
<g>
	<g>
		<path d="M467.814,145.882c15.3-9.2,31.199-14.4,44.399-27.2c15.601-15.3,18.4-46.2,8.9-65.2c-22.601-45-90-66.7-135.3-45
			c-86.301,41.6-14.4,137.7-24.5,205c-3.7-0.9-7.7-0.9-11.301,0c-10.699,2.4-17.1,10.1-21.399,19.3
			c-18.101-13.2-37.9-22.6-58.4-21.1c-3.1,0.3-5.2,1.8-6.1,3.7c-24.5-1.5-49.9,5.5-73.1,18.4c-4.6-8.6-12.5-13.5-21.4-14.4
			c-16.8-67,56.6-140.8-14.4-193.1c-36.4-26.6-102.8-23.6-120.9,23.6c-8.3,21.1-8.6,41.9,9.2,57.8c9.2,8.6,21.7,12.9,31.5,20.8
			c26,20.5-7.7,30.6-19.9,37.3c-15,8.3-14.7,28.8-2.1,38.6c22.9,18.4,59.4,9.5,82.6,28.2c0.9,0.6,1.8,1.2,2.8,1.5
			c-1.8,3.1-2.8,6.4-3.1,10.1c-0.6,9.2,5.8,16.2,13.2,20.8c-3.7,3.4-7,6.7-10.4,10.4c-34.3-32.701-90-54.8-116.9-2.8
			c-2.8,5.201,0.6,10.1,6.1,10.701c28.5,3.1,45.3,22,69.8,33.699c7.7,3.7,14.4-7,6.7-11.6c-22.3-13.2-40.4-28.2-64.9-34.601
			c25.1-33.7,61.5-4.9,92.4,11.601c-2.1,2.4-4,4.6-5.8,7c-13.8-11.9-37.6-18.4-54.8-19.9c-3.7-0.3-4.3,5.5-0.9,6.4
			c10.4,2.4,20.2,5.5,30,9.8c7,3.101,12.9,7.601,19.6,11c-20.8,27.5-34.9,58.8-37.9,87.8c-10.4,96.7,65.8,152.101,154.5,161.301
			c41,4.3,80.8-5.2,112.9-25.4c15,43.1,86.9,25.1,112.3,2.8c11.9-10.399,16.8-34-0.3-42.8c-9.8-5.2-19.3-3.7-29.7-0.6
			c-17.1,5.199-26.899,9.5-41,3.699c16.8-21.699,28.5-48,32.101-78.3c2.1-18.7,0-37.3-5.5-55.399c1.199,0,2.399-0.301,3.699-0.9
			c28.2-17.1,51.4-41.6,81.4-56.6c4.6-2.101,4.9-10.101,0-12.5c-37-16.801-82.6-13.501-117.2,8.3c-2.1-2.8-4-5.2-6.1-7.601
			c-2.4-3.1-5.2-6.1-8-9.2c7.3-4.6,12.5-14.4,13.8-22c0.6-4,0.3-7.7-0.3-11.3c22.3,3.4,54.2,14.7,74.399,3.7
			c21.7-12.2,15.9-37.6,7.301-56.9c-1.2-3.1-4.601-6.1-7.301-7.6C440.614,167.682,453.713,154.182,467.814,145.882z
			 M351.513,225.182c5.5-0.6,10.4,2.8,13.801,6.7c3.399,4,4.899,10.1,4,15.3c-1.2,6.7-6.101,9.5-9.801,13.5
			c-7.699-8-16.199-16.2-25.1-23.6C338.713,231.882,344.814,226.083,351.513,225.182z M177.414,241.682
			c-7.3,4.9-14.7,10.4-21.4,16.2c-3.7-3.4-7.7-7.7-7.3-12.5c0.3-3.4,4-6.7,7.3-8.6C164.313,231.882,173.414,233.083,177.414,241.682
			z M147.114,224.282c-0.3-0.9-0.9-1.5-1.8-2.1c-14.4-11.9-32.7-15.3-50.5-19.3c-2.4-0.6-48.3-10.4-32.1-22.6
			c7.7-5.8,18.7-7,26.6-12.2c33.4-22.3-9.5-55.7-27.8-66.7c-32.4-19.3-12.2-60.6,16.2-71.6c25.4-9.8,56.3,0.3,75.9,17.4
			c29.4,25.4,14.7,66.7,5.8,98.2c-7.3,25.7-10.4,49.9-0.9,74.7c-3.4,0.6-6.7,1.8-10.1,3.7
			C148.014,223.682,147.713,223.982,147.114,224.282z M245.614,529.982c-51.4-0.6-100.7-22-127.6-60.3
			c19.9-26.899,51.1-43.5,86-51.1c-1.5,34.899,32.4,55.399,64.6,49.899c26-4.6,41-24.8,45.3-46.8c28.5,7.601,54.5,20.5,72.5,37.601
			c0.3,0.3,0.6,0.3,0.9,0.6C359.213,506.083,300.713,530.883,245.614,529.982z M213.813,366.283c0-0.601-0.3-1.2-0.3-1.801
			c-0.3-7.6-2.8-14.699-4.9-22.6c-1.2-4.6-7.7-6.4-10.7-2.8c-10.7,11.6-11,28.2,0.9,38.6c0.3,0.9,0.6,1.5,0.9,2.101
			c-13.2,0.3-18.4-18.4-19.3-32.101c-1.2-23.3,6.4-45.899,20.2-64.3c1.2,0.3,2.4,0.3,3.7,0c8.9-3.4,15.3-6.1,22.6,1.5
			s9.5,21.4,10.4,31.5c2.1,24.2-5.2,43.8-24.8,57.8c0.3-1.2,0.6-2.8,0.6-4C213.813,368.982,214.114,367.783,213.813,366.283z
			 M312.414,320.083c-1.8-2.101-5.8-2.4-8.3-0.9c-14.7,10.101-18.4,23.601-15.3,40.4c-0.601-0.3-1.2-0.601-1.801-0.9
			c-7.699-8.899-10.399-23.6-10.699-33.7c-0.601-19,8-34.3,23.6-43.1c0.6,0.3,1.5,0.6,2.4,0.6c11,0.9,19.6-0.6,26.899,9.2
			c6.7,8.9,8.601,20.8,8.601,31.8c0,12.5-6.4,27.5-16.5,36.101C324.614,345.783,321.513,331.683,312.414,320.083z M409.713,500.883
			c9.2-1.5,61.8-21.7,45.9,8c-14.7,26.9-85.7,39.5-100.101,7.3c3.7-2.399,7-5.2,10.4-8.3c18.1,11.3,43.8,15.6,62.7,4
			c2.8-1.8,2.1-7.3-1.8-6.7c-9.5,1.2-18.4,4.601-28.2,4.9c-9.8,0.6-19-2.4-27.2-6.7c2.8-2.4,5.8-5.2,8.3-8
			C387.314,501.783,399.013,502.683,409.713,500.883z M480.013,288.183c-23.899,14.7-44.399,34.3-67.6,49.601
			c-0.3,0.3-0.6,0.6-0.9,0.899c-2.399-6.399-5.5-12.5-8.6-18.7c14.1-10.699,30.6-13.199,48-15.3c5.2-0.6,5.2-7.6,0-8.3
			c-18.1-1.5-37.6,4.3-52,15.9c-3.4-5.801-6.7-11.301-10.7-16.801C418.814,284.583,449.114,278.683,480.013,288.183z
			 M404.513,396.583c0.301,17.7-3.1,33.7-9.199,48.3c-13.5-25.4-47.101-37-80.5-41.9c-0.601-7.6-2.4-15-5.2-21.399
			c28.5-4.3,44.7-34,44.7-61.5c0.3-25.4-23.9-69.201-55.101-49c-1.2,0.9-2.1,1.8-2.399,3.1c-33,4.3-43.101,50.8-30.9,81.4l0,0
			c-0.6-1.5-2.1-2.4-4.3-2.8c-4.3-0.601-8.6-0.301-12.5,0.6c5.2-15.6,5.8-33,3.1-50.2c-4-24.2-24.2-48-47.4-37
			c-1.2,0-2.4,0.3-3.4,1.2c-0.9,0.9-1.8,1.5-2.8,2.4c-0.6,0.3-1.2,0.6-1.8,1.2s-1.2,1.2-1.5,1.8
			c-22.6,22.001-35.8,56.301-30.3,87.801c4.3,25.399,21.7,41.3,44.4,34.3c-1.2,3.4-2.1,6.7-3.1,9.8c-37.9,7-76.5,22.601-95.5,53.5
			c-9.5-17.7-14.7-38.2-13.8-61.8c3.1-80.2,93.9-167.101,173.2-168c1.2,0,2.1-0.3,2.8-0.6
			C343.914,238.682,403.513,329.482,404.513,396.583z M435.414,183.282c9.8,9.8,39.5,37.9,11.3,46.5c-20.2,6.1-47.7-5.5-68.5-7.6
			c-0.899,0-1.8,0-2.8,0.3l0,0c-1.8-2.4-4.3-4.3-6.7-5.8c19.601-58.8-39.5-131.3,5.5-181.2c34.9-38.2,116.601-15.9,133.7,30
			c12.9,35.2-23.6,52.9-48.7,65.8c-17.1,8.6-26.3,24.8-27.8,43.5C431.114,177.482,433.513,181.382,435.414,183.282z"/>
		<path d="M199.713,478.583c0.6,0.6,0.3,0.3,0.3-0.9c0.3-2.1,0.6-4.3-0.3-6.399c-1.5-4-6.1-7.601-10.7-6.4c-1.2-1.2-2.4-1.8-4-2.1
			c-0.3,0-0.6,0-0.9,0c-0.3,0-0.6-0.301-0.6-0.301c-3.1-2.399-8.6,0.301-7,4.601c1.2,3.7,1.8,7.3,3.7,11c1.5,3.399,4.6,5.5,8,6.399
			c0.6,0.601,0.9,1.5,1.8,2.101C194.514,491.383,204.014,484.083,199.713,478.583z"/>
		<path d="M315.713,466.883c-0.3,0-0.6,0.3-0.899,0.3c-1.5,0.9-2.4,2.101-3.101,3.4c-0.899,0-2.1,0.3-3.1,1.2
			c-1.8,1.5-3.4,3.399-5.2,4.899c-4.3,4.3,0,12.5,6.1,10.4c0.301,0,0.601-0.3,0.601-0.3c2.399,1.199,5.5,1.5,8-0.9
			c1.2-1.5,2.8-3.4,4-5.2c0.6-0.6,0.899-1.2,1.5-1.8c1.5-1.5,2.8-3.1,3.7-4.9C331.614,466.283,320.914,460.482,315.713,466.883z"/>
	</g>
</g>
</svg>
