<svg width="33" height="32" viewBox="0 0 33 32" fill="none" xmlns="http://www.w3.org/2000/svg">
<g clip-path="url(#clip0_20403_529)">
<path fill-rule="evenodd" clip-rule="evenodd" d="M16.9355 17.3333C19.8811 17.3333 22.2689 14.9455 22.2689 12C22.2689 9.05448 19.8811 6.66667 16.9355 6.66667C13.99 6.66667 11.6022 9.05448 11.6022 12C11.6022 14.9455 13.99 17.3333 16.9355 17.3333ZM16.9355 14.6667C18.4083 14.6667 19.6022 13.4728 19.6022 12C19.6022 10.5272 18.4083 9.33333 16.9355 9.33333C15.4628 9.33333 14.2689 10.5272 14.2689 12C14.2689 13.4728 15.4628 14.6667 16.9355 14.6667Z" fill="#B5B8BB"/>
<path fill-rule="evenodd" clip-rule="evenodd" d="M16.9355 32C25.7721 32 32.9355 24.8366 32.9355 16C32.9355 7.16344 25.7721 0 16.9355 0C8.09899 0 0.935547 7.16344 0.935547 16C0.935547 24.8366 8.09899 32 16.9355 32ZM27.8987 23.5907C29.3931 21.4364 30.2689 18.8205 30.2689 16C30.2689 8.6362 24.2993 2.66667 16.9355 2.66667C9.57175 2.66667 3.60221 8.6362 3.60221 16C3.60221 18.8204 4.47793 21.4363 5.9723 23.5906C8.65745 20.5714 12.5738 18.6667 16.9355 18.6667C21.2972 18.6667 25.2136 20.5714 27.8987 23.5907ZM26.146 25.6408C23.9433 23.0061 20.6345 21.3333 16.9355 21.3333C13.2365 21.3333 9.92774 23.0061 7.72498 25.6407C10.1187 27.9283 13.3631 29.3333 16.9355 29.3333C20.508 29.3333 23.7523 27.9284 26.146 25.6408Z" fill="#B5B8BB"/>
</g>
<defs>
<clipPath id="clip0_20403_529">
<rect width="32" height="32" fill="white" transform="translate(0.935547)"/>
</clipPath>
</defs>
</svg>
