<svg width="16" height="16" viewBox="0 0 16 16" fill="none" xmlns="http://www.w3.org/2000/svg">
<path fill-rule="evenodd" clip-rule="evenodd" d="M8 8.66667C9.47276 8.66667 10.6667 7.47276 10.6667 6C10.6667 4.52724 9.47276 3.33333 8 3.33333C6.52724 3.33333 5.33333 4.52724 5.33333 6C5.33333 7.47276 6.52724 8.66667 8 8.66667ZM8 7.33333C8.73638 7.33333 9.33333 6.73638 9.33333 6C9.33333 5.26362 8.73638 4.66667 8 4.66667C7.26362 4.66667 6.66667 5.26362 6.66667 6C6.66667 6.73638 7.26362 7.33333 8 7.33333Z" fill="#B5B8BB"/>
<path fill-rule="evenodd" clip-rule="evenodd" d="M8 16C12.4183 16 16 12.4183 16 8C16 3.58172 12.4183 0 8 0C3.58172 0 0 3.58172 0 8C0 12.4183 3.58172 16 8 16ZM13.4816 11.7953C14.2288 10.7182 14.6667 9.41023 14.6667 8C14.6667 4.3181 11.6819 1.33333 8 1.33333C4.3181 1.33333 1.33333 4.3181 1.33333 8C1.33333 9.41021 1.77119 10.7182 2.51837 11.7953C3.86095 10.2857 5.81913 9.33333 7.99997 9.33333C10.1808 9.33333 12.139 10.2857 13.4816 11.7953ZM12.6052 12.8204C11.5039 11.5031 9.84947 10.6667 7.99997 10.6667C6.15048 10.6667 4.49609 11.5031 3.39472 12.8204C4.59159 13.9642 6.21376 14.6667 8 14.6667C9.78623 14.6667 11.4084 13.9642 12.6052 12.8204Z" fill="#B5B8BB"/>
</svg>
