<svg width="15" height="20" viewBox="0 0 15 20" fill="none" xmlns="http://www.w3.org/2000/svg">
<path fill-rule="evenodd" clip-rule="evenodd" d="M15 7.46105C15 3.34699 11.6356 -2.87015e-07 7.5 -6.39812e-07C3.36445 -9.92609e-07 -2.99856e-07 3.34699 -6.68433e-07 7.46105C-1.21759e-06 13.5908 6.75354 19.5759 7.041 19.8277C7.17217 19.9426 7.33605 20 7.5 20C7.66394 20 7.82782 19.9425 7.95892 19.8277C8.24652 19.5758 15 13.5907 15 7.46105ZM13.6111 7.46105C13.6111 12.0983 8.99312 16.924 7.5 18.3628C6.00688 16.924 1.3889 12.0982 1.3889 7.46105C1.3889 4.1086 4.13034 1.38114 7.5 1.38114C10.8697 1.38114 13.6111 4.10861 13.6111 7.46105ZM10.9717 7.46179C10.9717 5.5453 9.41409 3.98611 7.49949 3.98611C5.58489 3.98611 4.0273 5.5453 4.0273 7.46179C4.0273 9.37835 5.58489 10.9375 7.49949 10.9375C9.41409 10.9375 10.9717 9.37835 10.9717 7.46179ZM9.58284 7.46179C9.58284 8.61673 8.64826 9.55633 7.49949 9.55633C6.35072 9.55633 5.41614 8.61673 5.41614 7.46179C5.41614 6.30684 6.35072 5.36725 7.49949 5.36725C8.64826 5.36725 9.58284 6.30691 9.58284 7.46179Z" fill="#B5B8BB"/>
</svg>
