<svg width="14" height="14" viewBox="0 0 14 14" fill="none" xmlns="http://www.w3.org/2000/svg">
<path d="M13.3 0.710689C13.1131 0.523436 12.8595 0.418203 12.595 0.418203C12.3305 0.418203 12.0768 0.523436 11.89 0.710689L6.99997 5.59069L2.10997 0.700689C1.92314 0.513436 1.66949 0.408203 1.40497 0.408203C1.14045 0.408203 0.886802 0.513436 0.699971 0.700689C0.309971 1.09069 0.309971 1.72069 0.699971 2.11069L5.58997 7.00069L0.699971 11.8907C0.309971 12.2807 0.309971 12.9107 0.699971 13.3007C1.08997 13.6907 1.71997 13.6907 2.10997 13.3007L6.99997 8.41069L11.89 13.3007C12.28 13.6907 12.91 13.6907 13.3 13.3007C13.69 12.9107 13.69 12.2807 13.3 11.8907L8.40997 7.00069L13.3 2.11069C13.68 1.73069 13.68 1.09069 13.3 0.710689Z" fill="#B5B8BB"/>
</svg>
