<svg width="18" height="12" viewBox="0 0 18 12" fill="none" xmlns="http://www.w3.org/2000/svg">
<g opacity="0.8" clip-path="url(#clip0_32343_3557)">
<rect width="18" height="12" fill="white"/>
<path d="M-4.51807 0H22.5539V12.032H-4.51807V0Z" fill="#012169"/>
<path d="M-4.51807 0V1.3442L19.5268 12.032H22.5539V10.6878L-1.49097 0H-4.51807ZM22.5539 0V1.3442L-1.49097 12.032H-4.51807V10.6878L19.5268 0H22.5539Z" fill="white"/>
<path d="M6.76281 0V12.032H11.2731V0H6.76281ZM-4.51807 4.01145V8.02055H22.5539V4.01145H-4.51807Z" fill="white"/>
<path d="M-4.51807 4.8128V7.2192H22.5539V4.8128H-4.51807ZM7.66433 0V12.032H10.3715V0H7.66433ZM-4.51807 12.032L4.50505 8.02055H6.52488L-2.50089 12.032H-4.51807ZM-4.51807 0L4.50505 4.01145H2.48787L-4.51807 0.8977V0ZM11.5136 4.01145L20.5367 0H22.5539L13.5308 4.01145H11.5136ZM22.5539 12.032L13.5308 8.02055H15.548L22.5539 11.1343V12.032Z" fill="#C8102E"/>
</g>
<defs>
<clipPath id="clip0_32343_3557">
<rect width="18" height="12" fill="white"/>
</clipPath>
</defs>
</svg>
