<svg width="23" height="12" viewBox="0 0 23 12" fill="none" xmlns="http://www.w3.org/2000/svg">
<path d="M17.6709 10.25L6.1709 10.25C3.9609 10.25 2.1709 8.46 2.1709 6.25C2.1709 4.04 3.9609 2.25 6.1709 2.25L18.6709 2.25C20.0509 2.25 21.1709 3.37 21.1709 4.75C21.1709 6.13 20.0509 7.25 18.6709 7.25L8.1709 7.25C7.6209 7.25 7.1709 6.8 7.1709 6.25C7.1709 5.7 7.6209 5.25 8.1709 5.25L17.6709 5.25L17.6709 3.75L8.1709 3.75C6.7909 3.75 5.6709 4.87 5.6709 6.25C5.6709 7.63 6.7909 8.75 8.1709 8.75L18.6709 8.75C20.8809 8.75 22.6709 6.96 22.6709 4.75C22.6709 2.54 20.8809 0.75 18.6709 0.75L6.1709 0.749999C3.1309 0.749999 0.670898 3.21 0.670898 6.25C0.670898 9.29 3.1309 11.75 6.1709 11.75L17.6709 11.75L17.6709 10.25Z" fill="#888D92"/>
</svg>
