<svg width="24" height="24" viewBox="0 0 24 24" fill="none" xmlns="http://www.w3.org/2000/svg">
<path d="M20.2144 13.172C20.4685 13.5596 20.6621 13.9804 20.7974 14.4414C20.932 14.9009 21 15.3764 21 15.8689C21 16.5742 20.8677 17.2367 20.6061 17.8573C20.3437 18.4764 19.9826 19.022 19.5222 19.496C19.0617 19.9651 18.5257 20.3334 17.9098 20.601C17.2939 20.8686 16.6458 21 15.9566 21C14.9751 21 14.0945 20.7501 13.3134 20.2512C13.0966 20.2835 12.8783 20.3068 12.6578 20.3246C12.4365 20.3407 12.2175 20.3471 11.9985 20.3471C10.8518 20.3471 9.77542 20.1255 8.76852 19.6838C7.76387 19.2397 6.88405 18.6368 6.12608 17.8686C5.37035 17.1037 4.77458 16.2018 4.34551 15.1693C3.91271 14.1368 3.69668 13.0333 3.69668 11.8606C3.69668 11.6333 3.70714 11.4172 3.72957 11.2174C3.74975 11.0175 3.77741 10.8135 3.80581 10.6096C3.26761 9.80441 3 8.93955 3 8.01182C3 7.32187 3.13231 6.6698 3.39468 6.05642C3.65631 5.44385 4.01512 4.91107 4.47558 4.45889C4.93605 4.00591 5.475 3.64965 6.08721 3.3885C6.70091 3.12735 7.35199 3 8.0412 3C8.53754 3 9.00324 3.06287 9.44576 3.19103C9.88829 3.3208 10.3024 3.50134 10.6844 3.73751C10.9004 3.70446 11.1217 3.68109 11.3399 3.66255C11.5612 3.64804 11.7825 3.63917 11.9985 3.63917C13.1489 3.63917 14.2291 3.85519 15.239 4.28479C16.2466 4.71118 17.1287 5.30199 17.8866 6.05159C18.6446 6.80441 19.2419 7.67571 19.6754 8.66712C20.1075 9.66013 20.3235 10.7257 20.3235 11.8606C20.3243 12.2789 20.2884 12.7166 20.2144 13.172ZM15.9566 15.7528C16.3109 15.2499 16.4858 14.6591 16.4858 13.9804C16.4858 13.446 16.3871 12.997 16.1928 12.6327C15.9902 12.27 15.7047 11.9661 15.3361 11.7235C14.9975 11.4882 14.5572 11.2794 14.0183 11.0924C13.4763 10.9457 12.9015 10.8023 12.2938 10.6556L11.6277 10.4919C11.4491 10.4508 11.3071 10.4162 11.2002 10.3847C11.0813 10.3533 10.9714 10.3186 10.8668 10.2775C10.7681 10.2397 10.6635 10.1953 10.5588 10.147C10.3555 10.0551 10.185 9.93015 10.0498 9.78345C9.9451 9.65691 9.89277 9.48684 9.89277 9.27566C9.89277 8.96695 10.0632 8.6913 10.4018 8.44707C10.7853 8.21897 11.254 8.10935 11.8109 8.1166C12.4545 8.1166 12.9067 8.21897 13.1616 8.4245C13.4696 8.66792 13.711 8.96776 13.8837 9.3216C14.034 9.58114 14.1865 9.77458 14.3442 9.90194C14.4944 10.0261 14.703 10.093 14.9654 10.1018C15.2606 10.1018 15.5051 9.99624 15.7106 9.78345C15.9117 9.58517 16.0081 9.3619 16.0029 9.11042C16.0029 8.81945 15.9267 8.53332 15.7772 8.25766C15.6292 7.99893 15.3802 7.72327 15.0371 7.43068C14.8637 7.30494 14.6731 7.18968 14.4675 7.0841C14.2612 6.9777 14.0295 6.8842 13.7776 6.80521C13.5137 6.72783 13.2364 6.66819 12.9441 6.62789C12.6511 6.58839 12.3311 6.56986 11.9768 6.56986C11.0843 6.56986 10.3316 6.68753 9.7186 6.92289C9.06005 7.16792 8.56146 7.50484 8.22359 7.9417C7.88571 8.3576 7.71678 8.85734 7.71678 9.44089C7.71678 10.0551 7.88048 10.5548 8.2034 10.9401C8.52857 11.3568 8.96885 11.672 9.52575 11.8855C10.055 12.1136 10.7315 12.3135 11.5612 12.486C11.8714 12.565 12.1428 12.6319 12.3827 12.6827C12.6189 12.7327 12.8335 12.7899 13.0211 12.852C13.3747 12.9559 13.6617 13.13 13.8807 13.3775C14.1147 13.5919 14.2321 13.8675 14.2321 14.2077C14.2321 14.6776 14.0183 15.058 13.5959 15.3482C13.1968 15.6456 12.6571 15.7923 11.9776 15.7818C11.4334 15.7818 11.0395 15.7141 10.7898 15.5771C10.4796 15.4248 10.2508 15.2313 10.1006 15.0008C9.90997 14.738 9.75748 14.4463 9.63488 14.1311C9.52799 13.8321 9.38372 13.6064 9.19535 13.4541C9.01968 13.3001 8.81412 13.2235 8.57267 13.2235C8.2647 13.2235 8.01055 13.3162 7.80947 13.4984C7.60839 13.7055 7.51196 13.9481 7.51645 14.2206C7.51645 14.6953 7.6794 15.1701 8.00233 15.6456C8.32301 16.1349 8.73488 16.5169 9.23646 16.7918C9.97126 17.2012 10.8944 17.4084 12.0037 17.4164C12.909 17.4164 13.7155 17.2714 14.4174 16.982C15.1066 16.6523 15.6209 16.2437 15.9566 15.7528Z" fill="#B5B8BB"/>
</svg>
