<svg width="24" height="24" viewBox="0 0 24 24" fill="none" xmlns="http://www.w3.org/2000/svg">
<path d="M6.02222 10.79C7.62222 13.62 10.2 15.93 13.3444 17.38L15.7889 15.18C16.0889 14.91 16.5333 14.82 16.9222 14.94C18.1667 15.31 19.5111 15.51 20.8889 15.51C21.5 15.51 22 15.96 22 16.51V20C22 20.55 21.5 21 20.8889 21C10.4556 21 2 13.39 2 4C2 3.45 2.5 3 3.11111 3H7C7.61111 3 8.11111 3.45 8.11111 4C8.11111 5.25 8.33333 6.45 8.74444 7.57C8.86667 7.92 8.77778 8.31 8.46667 8.59L6.02222 10.79Z" fill="#B5B8BB"/>
</svg>
