<svg width="24" height="24" viewBox="0 0 24 24" fill="none" xmlns="http://www.w3.org/2000/svg">
<path d="M17.1006 21C16.9444 21 16.7892 20.9535 16.6561 20.8627L11.6273 17.4305L8.93014 19.3832C8.71861 19.5362 8.44595 19.5748 8.20033 19.4864C7.95501 19.3979 7.76871 19.1934 7.70221 18.9399L6.34792 13.7758L1.5089 11.9141C1.20427 11.7969 1.00224 11.5036 1.00002 11.1754C0.997802 10.8473 1.19583 10.5512 1.49898 10.4299L19.8987 3.06326C19.9822 3.02757 20.0705 3.00697 20.1596 3.00145C20.1915 2.99954 20.2235 2.99954 20.2553 3.00134C20.4398 3.01239 20.621 3.08801 20.7625 3.22756C20.7771 3.24201 20.7911 3.25677 20.8043 3.27217C20.9214 3.40684 20.9858 3.57104 20.998 3.73832C21.0009 3.78038 21.0007 3.82297 20.997 3.86556C20.9945 3.89593 20.9902 3.9262 20.984 3.95626L17.8782 20.3526C17.8283 20.616 17.6501 20.8364 17.404 20.9391C17.3063 20.9799 17.2032 21 17.1006 21ZM12.0689 15.8067L16.5483 18.8639L18.9649 6.1058L10.2368 14.5564L12.0477 15.7924C12.055 15.797 12.062 15.8019 12.0689 15.8067ZM8.33987 15.1269L8.93964 17.4136L10.2319 16.478L8.53979 15.3231C8.46115 15.2695 8.39381 15.2028 8.33987 15.1269ZM3.96995 11.1551L7.29265 12.4334C7.53068 12.5249 7.71033 12.7263 7.77536 12.9742L8.19674 14.581C8.21605 14.3957 8.29955 14.2213 8.43519 14.0899L16.7519 6.03783L3.96995 11.1551Z" fill="#B5B8BB"/>
</svg>
