<svg width="156" height="72" viewBox="0 0 156 72" fill="none" xmlns="http://www.w3.org/2000/svg">
<path fill-rule="evenodd" clip-rule="evenodd" d="M29.2683 0.258321C29.8704 -0.0861071 30.591 -0.0861071 31.193 0.258321L54.9806 13.8666C55.655 14.2523 56.0768 15.0099 56.0768 15.8351C56.0768 16.6602 55.655 17.4178 54.9806 17.8035L47.5144 22.0748C47.5011 22.0828 47.4878 22.0906 47.4743 22.0983L31.193 31.4118C30.591 31.7562 29.8704 31.7562 29.2683 31.4118L21.7169 27.0919V45.7732C21.7169 47.003 20.7953 48 19.6584 48C18.5215 48 17.5999 47.003 17.5999 45.7732V25.3608C17.5999 25.161 17.6246 24.9652 17.6716 24.7776L5.4807 17.8035C4.80636 17.4178 4.38452 16.6602 4.38452 15.8351C4.38452 15.0099 4.80636 14.2523 5.4807 13.8666L29.2683 0.258321ZM30.2307 26.9242L49.615 15.8351L30.2307 4.74583L10.8464 15.8351L14.8646 18.1338C14.8813 18.1427 14.8979 18.1519 14.9145 18.1614L21.377 21.8588L29.2684 17.3448C30.2734 16.7699 31.519 17.1852 32.0505 18.2724C32.5819 19.3596 32.198 20.7069 31.193 21.2818L25.7802 24.378L30.2307 26.9242Z" fill="#FEDA00"/>
<path d="M47.5691 58.5276H42.4664V71.8573H39.0341V58.5276H34V55.8573H47.5691V58.5276Z" fill="#020303"/>
<path d="M55.7037 66.0002H52.9693V71.8573H49.537V55.8573H55.7266C57.6945 55.8573 59.2123 56.2785 60.2802 57.121C61.348 57.9635 61.8819 59.154 61.8819 60.6925C61.8819 61.784 61.634 62.6961 61.1383 63.4287C60.6501 64.154 59.9064 64.7328 58.9073 65.165L62.5112 71.7035V71.8573H58.8272L55.7037 66.0002ZM52.9693 63.3298H55.7381C56.6 63.3298 57.2674 63.121 57.7403 62.7035C58.2132 62.2785 58.4496 61.6961 58.4496 60.9562C58.4496 60.2016 58.2246 59.6082 57.7746 59.176C57.3322 58.7437 56.6495 58.5276 55.7266 58.5276H52.9693V63.3298Z" fill="#020303"/>
<path d="M73.9065 68.5606H67.8885L66.7444 71.8573H63.0947L69.2958 55.8573H72.4764L78.7118 71.8573H75.0621L73.9065 68.5606ZM68.8152 65.8903H72.9798L70.8861 59.9013L68.8152 65.8903Z" fill="#020303"/>
<path d="M83.9175 71.8573H80.4851V55.8573H83.9175V71.8573Z" fill="#020303"/>
<path d="M100.656 71.8573H97.2235L90.5419 61.3298V71.8573H87.1095V55.8573H90.5419L97.2349 66.4067V55.8573H100.656V71.8573Z" fill="#020303"/>
<path d="M113.676 64.9232H107.086V69.2089H114.82V71.8573H103.653V55.8573H114.797V58.5276H107.086V62.3408H113.676V64.9232Z" fill="#020303"/>
<path d="M126.856 64.9232H120.266V69.2089H128V71.8573H116.833V55.8573H127.977V58.5276H120.266V62.3408H126.856V64.9232Z" fill="#020303"/>
<path d="M47.3605 48.0174C47.2289 49.9025 46.5554 51.3864 45.34 52.4693C44.1324 53.5522 42.5377 54.0936 40.5559 54.0936C38.3884 54.0936 36.6814 53.3396 35.4351 51.8316C34.1965 50.3156 33.5771 48.238 33.5771 45.599V44.5281C33.5771 42.8436 33.8636 41.3597 34.4364 40.0762C35.0093 38.7928 35.826 37.8102 36.8865 37.1284C37.9548 36.4385 39.1934 36.0936 40.6024 36.0936C42.5532 36.0936 44.1246 36.6351 45.3168 37.718C46.509 38.8008 47.1979 40.3209 47.3837 42.2781H43.9001C43.815 41.1471 43.5092 40.3289 42.9828 39.8236C42.4641 39.3102 41.6707 39.0535 40.6024 39.0535C39.4412 39.0535 38.5703 39.4867 37.9897 40.353C37.4168 41.2113 37.1227 42.5468 37.1072 44.3597V45.6832C37.1072 47.5762 37.382 48.9599 37.9316 49.8343C38.489 50.7086 39.3638 51.1458 40.5559 51.1458C41.632 51.1458 42.4332 50.8931 42.9596 50.3877C43.4937 49.8744 43.7995 49.0843 43.8769 48.0174H47.3605Z" fill="#020303"/>
<path d="M56.3825 47.4399H53.6072V53.853H50.1237V36.3343H56.4057C58.403 36.3343 59.9435 36.7955 61.0273 37.718C62.111 38.6404 62.6529 39.9439 62.6529 41.6284C62.6529 42.8236 62.4013 43.8222 61.8982 44.6244C61.4027 45.4185 60.6479 46.0522 59.6338 46.5254L63.2916 53.6845V53.853H59.5525L56.3825 47.4399ZM53.6072 44.5161H56.4173C57.2921 44.5161 57.9695 44.2875 58.4494 43.8303C58.9294 43.365 59.1694 42.7273 59.1694 41.9172C59.1694 41.091 58.941 40.4412 58.4843 39.968C58.0353 39.4947 57.3424 39.2581 56.4057 39.2581H53.6072V44.5161Z" fill="#020303"/>
<path d="M70.3396 36.3343L74.6824 49.0402L79.0021 36.3343H83.5771V53.853H80.082V49.0642L80.4303 40.7982L75.8668 53.853H73.4748L68.9229 40.8102L69.2713 49.0642V53.853H65.7877V36.3343H70.3396Z" fill="#020303"/>
</svg>
