<svg width="30" height="30" viewBox="0 0 30 30" fill="none" xmlns="http://www.w3.org/2000/svg">
<path d="M17.5947 10.9314C19.1971 10.9314 20.4969 9.63249 20.4969 8.03016C20.4969 6.42782 19.1971 5.12891 17.5947 5.12891" stroke="#B5B8BB" stroke-width="1.5" stroke-linecap="round" stroke-linejoin="round"/>
<path d="M18.929 14.085C19.4075 14.118 19.8832 14.1858 20.3516 14.2912C21.0025 14.4186 21.7853 14.6854 22.064 15.2693C22.2418 15.6433 22.2418 16.0787 22.064 16.4536C21.7862 17.0375 21.0025 17.3034 20.3516 17.4372" stroke="#B5B8BB" stroke-width="1.5" stroke-linecap="round" stroke-linejoin="round"/>
<path d="M6.28986 10.9314C4.68753 10.9314 3.3877 9.63249 3.3877 8.03016C3.3877 6.42782 4.68753 5.12891 6.28986 5.12891" stroke="#B5B8BB" stroke-width="1.5" stroke-linecap="round" stroke-linejoin="round"/>
<path d="M4.95565 14.085C4.47715 14.118 4.0014 14.1858 3.53298 14.2912C2.88215 14.4186 2.09931 14.6854 1.82156 15.2693C1.64281 15.6433 1.64281 16.0787 1.82156 16.4536C2.0984 17.0375 2.88215 17.3034 3.53298 17.4372" stroke="#B5B8BB" stroke-width="1.5" stroke-linecap="round" stroke-linejoin="round"/>
<path fill-rule="evenodd" clip-rule="evenodd" d="M11.9377 14.71C15.1845 14.71 17.9583 15.2013 17.9583 17.1675C17.9583 19.1329 15.2028 19.6425 11.9377 19.6425C8.68991 19.6425 5.91699 19.1512 5.91699 17.185C5.91699 15.2187 8.67249 14.71 11.9377 14.71Z" stroke="#B5B8BB" stroke-width="1.5" stroke-linecap="round" stroke-linejoin="round"/>
<path fill-rule="evenodd" clip-rule="evenodd" d="M11.9376 11.9049C9.79626 11.9049 8.07935 10.188 8.07935 8.04575C8.07935 5.90442 9.79626 4.1875 11.9376 4.1875C14.0789 4.1875 15.7958 5.90442 15.7958 8.04575C15.7958 10.188 14.0789 11.9049 11.9376 11.9049Z" stroke="#B5B8BB" stroke-width="1.5" stroke-linecap="round" stroke-linejoin="round"/>
</svg>
