<svg width="30" height="30" viewBox="0 0 30 30" fill="none" xmlns="http://www.w3.org/2000/svg">
<path fill-rule="evenodd" clip-rule="evenodd" d="M12.2988 4.75V5.06074C12.2132 5.05726 12.127 5.05549 12.0405 5.05549C11.9596 5.05549 11.879 5.05703 11.7988 5.06009V4.75C11.7988 4.61193 11.9108 4.5 12.0488 4.5C12.1869 4.5 12.2988 4.61193 12.2988 4.75ZM13.7988 4.75V5.30654C16.3831 6.06364 18.2733 8.44718 18.2837 11.2757L18.2988 15.4038L19.4859 16.4213C20.7194 17.4786 19.9717 19.5 18.347 19.5H14.7047C14.4695 20.7801 13.348 21.75 12 21.75C10.652 21.75 9.53047 20.7801 9.29534 19.5H5.7535C4.12879 19.5 3.38105 17.4786 4.61462 16.4213L5.79853 15.4065L5.79732 11.3005C5.79648 8.45626 7.69773 6.05577 10.2988 5.30167V4.75C10.2988 3.7835 11.0823 3 12.0488 3C13.0153 3 13.7988 3.7835 13.7988 4.75ZM7.29861 15.6999C7.3137 15.9276 7.225 16.1595 7.03834 16.3194L5.59081 17.5602C5.41458 17.7112 5.5214 18 5.7535 18H18.347C18.5791 18 18.6859 17.7112 18.5097 17.5602L17.0721 16.328C16.9067 16.191 16.8009 15.9843 16.8001 15.7528L16.7837 11.2812C16.7741 8.66848 14.6533 6.55549 12.0405 6.55549C9.42037 6.55549 7.29655 8.67994 7.29732 11.3001L7.29861 15.6999ZM10.854 19.5C11.0469 19.9415 11.4874 20.25 12 20.25C12.5126 20.25 12.9531 19.9415 13.146 19.5H10.854Z" fill="#B5B8BB"/>
</svg>
